<svg xmlns="http://www.w3.org/2000/svg" xmlns:xlink="http://www.w3.org/1999/xlink" contentScriptType="application/ecmascript" contentStyleType="text/css" height="1703px" preserveAspectRatio="none" style="width:1824px;height:1703px;" version="1.1" viewBox="0 0 1824 1703" width="1824px" zoomAndPan="magnify">
  <defs>
    <filter height="300%" id="f81dk65rysg7f" width="300%" x="-1" y="-1">
      <feGaussianBlur result="blurOut" stdDeviation="2.0"/>
      <feColorMatrix in="blurOut" result="blurOut2" type="matrix" values="0 0 0 0 0 0 0 0 0 0 0 0 0 0 0 0 0 0 .4 0"/>
      <feOffset dx="4.0" dy="4.0" in="blurOut2" result="blurOut3"/>
      <feBlend in="SourceGraphic" in2="blurOut3" mode="normal"/>
    </filter>
  </defs>
  <g>
    <!--cluster Data source-->
    <polygon fill="#DDDDDD" filter="url(#f81dk65rysg7f)" points="1631.5,672.395,1641.5,662.395,1802.5,662.395,1802.5,1091.395,1792.5,1101.395,1631.5,1101.395,1631.5,672.395" style="stroke: #000000; stroke-width: 1.5;"/>
    <line style="stroke: #000000; stroke-width: 1.5;" x1="1792.5" x2="1801.5" y1="672.395" y2="663.395"/>
    <line style="stroke: #000000; stroke-width: 1.5;" x1="1631.5" x2="1792.5" y1="672.395" y2="672.395"/>
    <line style="stroke: #000000; stroke-width: 1.5;" x1="1792.5" x2="1792.5" y1="672.395" y2="1101.395"/>
    <text fill="#000000" font-family="sans-serif" font-size="14" font-weight="bold" lengthAdjust="spacingAndGlyphs" textLength="95" x="1665.5" y="688.3901">Data source</text>
    <!--cluster Meshes-->
    <path d="M1686.8893,901.0483 C1692.2794,893.1748 1697.6395,893.1371 1702.558,901.5033 C1706.0883,894.2384 1712.422,893.7911 1717.5117,899.7382 C1722.7552,891.4567 1730.5272,893.2258 1734.2853,901.2648 C1738.1587,894.9788 1743.6139,894.5527 1748.2417,900.3969 C1754.4907,903.5124 1755.9527,908.3896 1750.179,913.309 C1755.0271,916.1265 1756.1136,919.6417 1751.3981,923.5928 C1757.5911,926.6072 1756.9788,931.2299 1752.2336,935.0425 C1757.7031,937.348 1758.3365,941.4727 1753.3264,944.9358 C1760.001,947.5369 1759.1271,952.7328 1754.6091,956.5681 C1761.1523,958.5738 1762.3759,963.6096 1756.935,968.0441 C1761.3811,970.5049 1762.2123,975.0622 1757.6896,978.19 C1763.3233,982.3843 1763.2441,986.4285 1756.8456,989.7439 C1761.5324,993.2334 1761.3645,998.4307 1755.4409,1000.5396 C1760.2318,1004.7267 1759.6572,1009.0784 1753.3388,1011.0419 C1758.2515,1014.7777 1756.4528,1018.8379 1751.7033,1020.9843 C1756.482,1024.7723 1757.5198,1028.774 1751.62,1032.4846 C1755.347,1036.9993 1756.28,1040.6633 1749.6734,1043.3218 C1754.6842,1047.6216 1753.5239,1052.4831 1747.8871,1055.1788 C1743.7592,1061.1721 1738.7235,1062.7504 1733.9773,1055.8456 C1729.5916,1062.7384 1723.2393,1063.5674 1717.8932,1056.9926 C1712.2004,1063.4672 1707.6298,1064.0518 1703.0106,1055.9001 C1697.8256,1064.2209 1691.6734,1062.4254 1687.0943,1055.2768 C1681.0482,1051.1242 1682.0245,1046.0331 1687.9525,1042.6975 C1680.487,1038.9571 1681.2879,1034.1107 1686.6728,1029.156 C1679.5494,1025.4109 1678.8439,1021.5405 1685.2748,1016.3192 C1680.0983,1012.6157 1679.5893,1006.8674 1685.4516,1003.3139 C1678.9644,998.9365 1679.3832,994.4472 1685.0238,989.689 C1679.584,986.2613 1679.9432,982.69 1684.8286,979.0724 C1678.4457,974.5159 1676.8453,969.5451 1684.4685,964.6391 C1678.5659,960.9035 1678.9765,955.6486 1684.6112,952.0437 C1680.4036,948.2737 1680.6248,942.8838 1686.3526,940.6296 C1679.6459,936.498 1679.8357,930.0817 1686.2914,925.8954 C1681.3104,922.0272 1681.5449,918.1289 1687.2952,915.2749 C1680.8945,910.6587 1679.9216,906.0458 1686.8893,901.0483 " fill="#DDDDDD" style="stroke: #000000; stroke-width: 1.5;"/>
    <text fill="#000000" font-family="sans-serif" font-size="14" font-weight="bold" lengthAdjust="spacingAndGlyphs" textLength="61" x="1686.5" y="918.3901">Meshes</text>
    <!--cluster Points-->
    <path d="M1693.9484,736.0601 C1696.5624,730.1755 1701.5804,728.3945 1706.2565,733.815 C1708.2634,726.8475 1714.5228,726.3381 1719.1645,730.853 C1723.9615,725.806 1729.6155,726.4512 1731.307,733.8763 C1735.277,727.7057 1740.8157,727.3917 1744.1626,734.4805 C1750.3563,739.3865 1750.5992,743.7177 1743.1755,747.5991 C1749.8782,750.8435 1749.9201,755.5802 1744.2284,759.8867 C1749.0776,763.6242 1748.7768,767.8671 1743.8361,771.2672 C1748.8614,773.2721 1750.4726,777.7473 1745.9829,781.7086 C1752.1778,785.3953 1751.2286,791.0561 1745.1296,793.8811 C1749.8772,797.5826 1751.2878,802.9373 1744.5236,806.0663 C1749.4182,809.8693 1749.5444,814.4672 1743.6937,817.4897 C1750.1125,820.4628 1750.8924,824.2983 1745.1832,828.8602 C1751.5644,832.4776 1749.9895,838.8052 1744.3979,841.6898 C1749.8925,846.0779 1748.5255,849.8227 1743.0543,852.8961 C1741.3653,858.5293 1736.128,860.1277 1731.651,856.2329 C1728.79,863.0545 1724.1701,863.8819 1718.5401,859.4626 C1713.9396,863.4318 1708.3705,863.0038 1707.1633,855.958 C1702.3992,861.2156 1696.4718,861.7003 1693.6182,853.9662 C1687.3134,850.2514 1686.4832,844.8555 1693.4198,840.939 C1688.4897,839.0677 1687.0529,834.1401 1691.9864,830.8653 C1684.646,827.0674 1683.6346,822.7989 1690.0358,817.0595 C1684.8752,814.4452 1685.5004,810.4129 1689.5545,807.3422 C1684.1867,804.0782 1683.0335,799.3789 1688.7815,795.3956 C1683.1571,791.4475 1683.6018,786.7978 1689.3702,783.4092 C1684.1347,778.5185 1684.1972,774.5935 1690.792,771.0655 C1685.2618,766.4852 1686.2085,762.0586 1691.6798,758.2397 C1687.7247,754.0152 1688.1638,750.7223 1693.2412,747.8561 C1687.3273,743.4911 1687.8874,739.7072 1693.9484,736.0601 " fill="#DDDDDD" style="stroke: #000000; stroke-width: 1.5;"/>
    <text fill="#000000" font-family="sans-serif" font-size="14" font-weight="bold" lengthAdjust="spacingAndGlyphs" textLength="49" x="1693" y="752.3901">Points</text>
    <!--cluster fast_sparse-->
    <polygon fill="#FFFFFF" filter="url(#f81dk65rysg7f)" points="274,515.39,371,515.39,378,537.6869,1167.5,537.6869,1167.5,1611.3946,274,1611.3946,274,515.39" style="stroke: #000000; stroke-width: 1.5;"/>
    <line style="stroke: #000000; stroke-width: 1.5;" x1="274" x2="378" y1="537.6869" y2="537.6869"/>
    <text fill="#000000" font-family="sans-serif" font-size="14" font-weight="bold" lengthAdjust="spacingAndGlyphs" textLength="91" x="278" y="530.3851">fast_sparse</text>
    <!--cluster 3D augmentation-->
    <a href="augmentation.svg" target="_top" xlink:actuate="onRequest" xlink:show="new" xlink:title="augmentation.svg" xlink:type="simple" style="cursor: hand;">
      <rect fill="#FFFFFF" filter="url(#f81dk65rysg7f)" height="369.9996" style="stroke: #000000; stroke-width: 1.0; stroke-dasharray: 7.0,7.0;" width="639.5" x="298" y="1217.395"/>
      <text fill="#000000" font-family="sans-serif" font-size="14" font-weight="bold" lengthAdjust="spacingAndGlyphs" textLength="134" x="550.75" y="1232.3901">3D augmentation</text>
    </a>
    <!--cluster transforms-->
    <polygon fill="#FFFFFF" filter="url(#f81dk65rysg7f)" points="322,1260.395,415,1260.395,422,1282.6919,913.5,1282.6919,913.5,1563.3946,322,1563.3946,322,1260.395" style="stroke: #000000; stroke-width: 1.5;"/>
    <line style="stroke: #000000; stroke-width: 1.5;" x1="322" x2="422" y1="1282.6919" y2="1282.6919"/>
    <text fill="#000000" font-family="sans-serif" font-size="14" font-weight="bold" lengthAdjust="spacingAndGlyphs" textLength="87" x="326" y="1275.3901">transforms</text>
    <!--cluster data -->
    <rect fill="#FFFFFF" filter="url(#f81dk65rysg7f)" height="635.005" style="stroke: #000000; stroke-width: 1.0; stroke-dasharray: 7.0,7.0;" width="804" x="339.5" y="558.39"/>
    <text fill="#000000" font-family="sans-serif" font-size="14" font-weight="bold" lengthAdjust="spacingAndGlyphs" textLength="34" x="722" y="573.3851">data</text>
    <!--cluster datasets-->
    <polygon fill="#FFFFFF" filter="url(#f81dk65rysg7f)" points="630,609.39,704,609.39,711,631.6869,942,631.6869,942,799.395,630,799.395,630,609.39" style="stroke: #000000; stroke-width: 1.5;"/>
    <line style="stroke: #000000; stroke-width: 1.5;" x1="630" x2="711" y1="631.6869" y2="631.6869"/>
    <text fill="#000000" font-family="sans-serif" font-size="14" font-weight="bold" lengthAdjust="spacingAndGlyphs" textLength="68" x="634" y="624.3851">datasets</text>
    <!--cluster data_items-->
    <polygon fill="#FFFFFF" filter="url(#f81dk65rysg7f)" points="809,831.395,899,831.395,906,853.6919,1119.5,853.6919,1119.5,1169.395,809,1169.395,809,831.395" style="stroke: #000000; stroke-width: 1.5;"/>
    <line style="stroke: #000000; stroke-width: 1.5;" x1="809" x2="906" y1="853.6919" y2="853.6919"/>
    <text fill="#000000" font-family="sans-serif" font-size="14" font-weight="bold" lengthAdjust="spacingAndGlyphs" textLength="84" x="813" y="846.3901">data_items</text>
    <!--cluster data-->
    <polygon fill="#FFFFFF" filter="url(#f81dk65rysg7f)" points="363.5,601.39,403.5,601.39,410.5,623.6869,573.5,623.6869,573.5,782.395,363.5,782.395,363.5,601.39" style="stroke: #000000; stroke-width: 1.5;"/>
    <line style="stroke: #000000; stroke-width: 1.5;" x1="363.5" x2="410.5" y1="623.6869" y2="623.6869"/>
    <text fill="#000000" font-family="sans-serif" font-size="14" font-weight="bold" lengthAdjust="spacingAndGlyphs" textLength="34" x="367.5" y="616.3851">data</text>
    <!--cluster fast.ai-->
    <g>
      <polygon fill="#DDDDDD" filter="url(#f81dk65rysg7f)" points="54,56.39,108,56.39,115,78.6869,233,78.6869,233,459.39,54,459.39,54,56.39" style="stroke: #000000; stroke-width: 1.5;"/>
      <line style="stroke: #000000; stroke-width: 1.5;" x1="54" x2="115" y1="78.6869" y2="78.6869"/>
      <a href="https://docs.fast.ai/index.html" target="_blank" xlink:actuate="onRequest" xlink:show="new" xlink:title="https://docs.fast.ai/index.html" xlink:type="simple" style="cursor: hand;">
        <text fill="#0000f0" font-family="sans-serif" font-size="14" font-weight="bold" lengthAdjust="spacingAndGlyphs" textLength="48" x="58" y="71.3851">fast.ai</text>
      </a>
    </g>
    <!--cluster torch-->
    <g>
      <polygon fill="#DDDDDD" filter="url(#f81dk65rysg7f)" points="405,258.39,453,258.39,460,280.6869,532,280.6869,532,459.39,405,459.39,405,258.39" style="stroke: #000000; stroke-width: 1.5;"/>
      <line style="stroke: #000000; stroke-width: 1.5;" x1="405" x2="460" y1="280.6869" y2="280.6869"/>
      <a href="https://pytorch.org/docs/stable/index.html" target="_blank" xlink:actuate="onRequest" xlink:show="new" xlink:title="https://pytorch.org/docs/stable/index.html" xlink:type="simple" style="cursor: hand;">
        <text fill="#0000f0" font-family="sans-serif" font-size="14" font-weight="bold" lengthAdjust="spacingAndGlyphs" textLength="42" x="409" y="273.3851">torch</text>
      </a>
    </g>
    <!--cluster trimesh-->
    <g>
      <polygon fill="#DDDDDD" filter="url(#f81dk65rysg7f)" points="1377,1006.395,1443,1006.395,1450,1028.6919,1464,1028.6919,1464,1081.395,1377,1081.395,1377,1006.395" style="stroke: #000000; stroke-width: 1.5;"/>
      <line style="stroke: #000000; stroke-width: 1.5;" x1="1377" x2="1450" y1="1028.6919" y2="1028.6919"/>
      <a href="https://github.com/mikedh/trimesh" target="_blank" xlink:actuate="onRequest" xlink:show="new" xlink:title="https://github.com/mikedh/trimesh" xlink:type="simple" style="cursor: hand;">
        <text fill="#0000f0" font-family="sans-serif" font-size="14" font-weight="bold" lengthAdjust="spacingAndGlyphs" textLength="60" x="1381" y="1021.3901">trimesh</text>
      </a>
    </g>
    <!--cluster ipyvolume-->
    <g>
      <polygon fill="#DDDDDD" filter="url(#f81dk65rysg7f)" points="1370.5,1113.395,1456.5,1113.395,1463.5,1135.6919,1470.5,1135.6919,1470.5,1282.395,1370.5,1282.395,1370.5,1113.395" style="stroke: #000000; stroke-width: 1.5;"/>
      <line style="stroke: #000000; stroke-width: 1.5;" x1="1370.5" x2="1463.5" y1="1135.6919" y2="1135.6919"/>
      <a href="https://ipyvolume.readthedocs.io/en/latest/#" target="_blank" xlink:actuate="onRequest" xlink:show="new" xlink:title="https://ipyvolume.readthedocs.io/en/latest/#" xlink:type="simple" style="cursor: hand;">
        <text fill="#0000f0" font-family="sans-serif" font-size="14" font-weight="bold" lengthAdjust="spacingAndGlyphs" textLength="80" x="1374.5" y="1128.3901">ipyvolume</text>
      </a>
    </g>
    <!--class ply-->
    <rect fill="#FEFECE" filter="url(#f81dk65rysg7f)" height="23.9688" id="ply" style="stroke: #A80036; stroke-width: 1.5;" width="23" x="1705.5" y="935.395"/>
    <text fill="#000000" font-family="sans-serif" font-size="12" lengthAdjust="spacingAndGlyphs" textLength="17" x="1708.5" y="951.5337">ply</text>
    <!--class stl-->
    <rect fill="#FEFECE" filter="url(#f81dk65rysg7f)" height="23.9688" id="stl" style="stroke: #A80036; stroke-width: 1.5;" width="21" x="1706.5" y="994.395"/>
    <text fill="#000000" font-family="sans-serif" font-size="12" lengthAdjust="spacingAndGlyphs" textLength="15" x="1709.5" y="1010.5337">stl</text>
    <!--class pts-->
    <rect fill="#FEFECE" filter="url(#f81dk65rysg7f)" height="23.9688" id="pts" style="stroke: #A80036; stroke-width: 1.5;" width="26" x="1704" y="761.395"/>
    <text fill="#000000" font-family="sans-serif" font-size="12" lengthAdjust="spacingAndGlyphs" textLength="20" x="1707" y="777.5337">pts</text>
    <!--class npy-->
    <rect fill="#FEFECE" filter="url(#f81dk65rysg7f)" height="23.9688" id="npy" style="stroke: #A80036; stroke-width: 1.5;" width="28" x="1703" y="820.395"/>
    <text fill="#000000" font-family="sans-serif" font-size="12" lengthAdjust="spacingAndGlyphs" textLength="22" x="1706" y="836.5337">npy</text>
    <!--class TfmConvertItem-->
    <rect fill="#FEFECE" filter="url(#f81dk65rysg7f)" height="23.9688" id="TfmConvertItem" style="stroke: #A80036; stroke-width: 1.5;" width="103" x="649" y="1295.395"/>
    <text fill="#000000" font-family="sans-serif" font-size="12" lengthAdjust="spacingAndGlyphs" textLength="97" x="652" y="1311.5337">TfmConvertItem</text>
    <!--class TfmSpatial-->
    <rect fill="#FEFECE" filter="url(#f81dk65rysg7f)" height="23.9688" id="TfmSpatial" style="stroke: #A80036; stroke-width: 1.5;" width="71" x="665" y="1413.395"/>
    <text fill="#000000" font-family="sans-serif" font-size="12" lengthAdjust="spacingAndGlyphs" textLength="65" x="668" y="1429.5337">TfmSpatial</text>
    <!--class TfmAffine-->
    <rect fill="#FEFECE" filter="url(#f81dk65rysg7f)" height="23.9688" id="TfmAffine" style="stroke: #A80036; stroke-width: 1.5;" width="63" x="834.5" y="1413.395"/>
    <text fill="#000000" font-family="sans-serif" font-size="12" lengthAdjust="spacingAndGlyphs" textLength="57" x="837.5" y="1429.5337">TfmAffine</text>
    <!--class TfmColors-->
    <rect fill="#FEFECE" filter="url(#f81dk65rysg7f)" height="23.9688" id="TfmColors" style="stroke: #A80036; stroke-width: 1.5;" width="67" x="667" y="1354.395"/>
    <text fill="#000000" font-family="sans-serif" font-size="12" lengthAdjust="spacingAndGlyphs" textLength="61" x="670" y="1370.5337">TfmColors</text>
    <!--class Transform-->
    <rect fill="#FEFECE" filter="url(#f81dk65rysg7f)" height="52.7734" id="Transform" style="stroke: #A80036; stroke-width: 1.5;" width="213" x="362" y="1469.895"/>
    <text fill="#000000" font-family="sans-serif" font-size="12" lengthAdjust="spacingAndGlyphs" textLength="63" x="437" y="1486.0337">Transform</text>
    <line style="stroke: #A80036; stroke-width: 1.5;" x1="363" x2="574" y1="1493.8638" y2="1493.8638"/>
    <line style="stroke: #A80036; stroke-width: 1.5;" x1="363" x2="574" y1="1501.8638" y2="1501.8638"/>
    <text fill="#000000" font-family="sans-serif" font-size="11" lengthAdjust="spacingAndGlyphs" textLength="201" x="368" y="1516.0742">sample_points(num_points=50000)</text>
    <!--class RandTransform-->
    <rect fill="#FEFECE" filter="url(#f81dk65rysg7f)" height="23.9688" id="RandTransform" style="stroke: #A80036; stroke-width: 1.5;" width="101" x="650" y="1484.395"/>
    <text fill="#000000" font-family="sans-serif" font-size="12" lengthAdjust="spacingAndGlyphs" textLength="95" x="653" y="1500.5337">RandTransform</text>
    <!--class BaseDataset-->
    <rect fill="#FEFECE" filter="url(#f81dk65rysg7f)" height="65.5781" id="BaseDataset" style="stroke: #A80036; stroke-width: 1.5;" width="93" x="654" y="671.395"/>
    <text fill="#000000" font-family="sans-serif" font-size="12" lengthAdjust="spacingAndGlyphs" textLength="81" x="660" y="687.5337">BaseDataset</text>
    <line style="stroke: #A80036; stroke-width: 1.5;" x1="655" x2="746" y1="695.3638" y2="695.3638"/>
    <text fill="#000000" font-family="sans-serif" font-size="11" lengthAdjust="spacingAndGlyphs" textLength="81" x="660" y="709.5742">df: DataFrame</text>
    <line style="stroke: #A80036; stroke-width: 1.5;" x1="655" x2="746" y1="716.1684" y2="716.1684"/>
    <text fill="#000000" font-family="sans-serif" font-size="11" lengthAdjust="spacingAndGlyphs" textLength="65" x="660" y="730.3789">transform()</text>
    <!--class PointsDataset-->
    <rect fill="#FEFECE" filter="url(#f81dk65rysg7f)" height="39.9688" id="PointsDataset" style="stroke: #A80036; stroke-width: 1.5;" width="95" x="818.5" y="660.395"/>
    <text fill="#000000" font-family="sans-serif" font-size="12" lengthAdjust="spacingAndGlyphs" textLength="89" x="821.5" y="676.5337">PointsDataset</text>
    <line style="stroke: #A80036; stroke-width: 1.5;" x1="819.5" x2="912.5" y1="684.3638" y2="684.3638"/>
    <line style="stroke: #A80036; stroke-width: 1.5;" x1="819.5" x2="912.5" y1="692.3638" y2="692.3638"/>
    <!--class MeshesDataset-->
    <rect fill="#FEFECE" filter="url(#f81dk65rysg7f)" height="39.9688" id="MeshesDataset" style="stroke: #A80036; stroke-width: 1.5;" width="104" x="814" y="735.395"/>
    <text fill="#000000" font-family="sans-serif" font-size="12" lengthAdjust="spacingAndGlyphs" textLength="98" x="817" y="751.5337">MeshesDataset</text>
    <line style="stroke: #A80036; stroke-width: 1.5;" x1="815" x2="917" y1="759.3638" y2="759.3638"/>
    <line style="stroke: #A80036; stroke-width: 1.5;" x1="815" x2="917" y1="767.3638" y2="767.3638"/>
    <!--class ItemBase -->
    <rect fill="#FEFECE" filter="url(#f81dk65rysg7f)" height="52.7734" id="ItemBase " style="stroke: #A80036; stroke-width: 1.5;" width="82" x="825" y="1090.895"/>
    <text fill="#000000" font-family="sans-serif" font-size="12" lengthAdjust="spacingAndGlyphs" textLength="58" x="835" y="1107.0337">ItemBase</text>
    <line style="stroke: #A80036; stroke-width: 1.5;" x1="826" x2="906" y1="1114.8638" y2="1114.8638"/>
    <line style="stroke: #A80036; stroke-width: 1.5;" x1="826" x2="906" y1="1122.8638" y2="1122.8638"/>
    <text fill="#000000" font-family="sans-serif" font-size="11" font-style="italic" lengthAdjust="spacingAndGlyphs" textLength="70" x="831" y="1137.0742">apply_tfms()</text>
    <!--class MeshItem-->
    <rect fill="#FEFECE" filter="url(#f81dk65rysg7f)" height="116.7969" id="MeshItem" style="stroke: #A80036; stroke-width: 1.5;" width="69" x="1033" y="1035.895"/>
    <text fill="#000000" font-family="sans-serif" font-size="12" lengthAdjust="spacingAndGlyphs" textLength="60" x="1037.5" y="1052.0337">MeshItem</text>
    <line style="stroke: #A80036; stroke-width: 1.5;" x1="1034" x2="1101" y1="1059.8638" y2="1059.8638"/>
    <text fill="#000000" font-family="sans-serif" font-size="11" lengthAdjust="spacingAndGlyphs" textLength="45" x="1039" y="1074.0742">vertices</text>
    <text fill="#000000" font-family="sans-serif" font-size="11" lengthAdjust="spacingAndGlyphs" textLength="31" x="1039" y="1086.8789">faces</text>
    <text fill="#000000" font-family="sans-serif" font-size="11" lengthAdjust="spacingAndGlyphs" textLength="35" x="1039" y="1099.6836">colors</text>
    <text fill="#000000" font-family="sans-serif" font-size="11" lengthAdjust="spacingAndGlyphs" textLength="34" x="1039" y="1112.4883">labels</text>
    <line style="stroke: #A80036; stroke-width: 1.5;" x1="1034" x2="1101" y1="1119.0825" y2="1119.0825"/>
    <text fill="#000000" font-family="sans-serif" font-size="11" lengthAdjust="spacingAndGlyphs" textLength="57" x="1039" y="1133.2929">describe()</text>
    <text fill="#000000" font-family="sans-serif" font-size="11" lengthAdjust="spacingAndGlyphs" textLength="38" x="1039" y="1146.0976">show()</text>
    <!--class PointsItem-->
    <rect fill="#FEFECE" filter="url(#f81dk65rysg7f)" height="133.6016" id="PointsItem" style="stroke: #A80036; stroke-width: 1.5;" width="72" x="1031.5" y="866.395"/>
    <text fill="#000000" font-family="sans-serif" font-size="12" lengthAdjust="spacingAndGlyphs" textLength="66" x="1034.5" y="882.5337">PointsItem</text>
    <line style="stroke: #A80036; stroke-width: 1.5;" x1="1032.5" x2="1102.5" y1="890.3638" y2="890.3638"/>
    <text fill="#000000" font-family="sans-serif" font-size="11" lengthAdjust="spacingAndGlyphs" textLength="35" x="1037.5" y="904.5742">points</text>
    <text fill="#000000" font-family="sans-serif" font-size="11" lengthAdjust="spacingAndGlyphs" textLength="35" x="1037.5" y="917.3789">colors</text>
    <text fill="#000000" font-family="sans-serif" font-size="11" lengthAdjust="spacingAndGlyphs" textLength="34" x="1037.5" y="930.1836">labels</text>
    <text fill="#000000" font-family="sans-serif" font-size="11" lengthAdjust="spacingAndGlyphs" textLength="47" x="1037.5" y="959.7929">normals</text>
    <line style="stroke: #A80036; stroke-width: 1.0; stroke-dasharray: 1.0,2.0;" x1="1032.5" x2="1044" y1="943.1802" y2="943.1802"/>
    <text fill="#000000" font-family="sans-serif" font-size="11" lengthAdjust="spacingAndGlyphs" textLength="47" x="1044" y="946.4883">Optional</text>
    <line style="stroke: #A80036; stroke-width: 1.0; stroke-dasharray: 1.0,2.0;" x1="1091" x2="1102.5" y1="943.1802" y2="943.1802"/>
    <line style="stroke: #A80036; stroke-width: 1.5;" x1="1032.5" x2="1102.5" y1="966.3872" y2="966.3872"/>
    <text fill="#000000" font-family="sans-serif" font-size="11" lengthAdjust="spacingAndGlyphs" textLength="57" x="1037.5" y="980.5976">describe()</text>
    <text fill="#000000" font-family="sans-serif" font-size="11" lengthAdjust="spacingAndGlyphs" textLength="38" x="1037.5" y="993.4023">show()</text>
    <!--class SparseDataBunch-->
    <rect fill="#FEFECE" filter="url(#f81dk65rysg7f)" height="129.6016" id="SparseDataBunch" style="stroke: #A80036; stroke-width: 1.5;" width="178" x="379.5" y="636.39"/>
    <text fill="#000000" font-family="sans-serif" font-size="12" lengthAdjust="spacingAndGlyphs" textLength="113" x="412" y="652.5287">SparseDataBunch</text>
    <line style="stroke: #A80036; stroke-width: 1.5;" x1="380.5" x2="556.5" y1="660.3588" y2="660.3588"/>
    <text fill="#000000" font-family="sans-serif" font-size="11" lengthAdjust="spacingAndGlyphs" textLength="131" x="385.5" y="674.5692">train_ds : BaseDataset</text>
    <text fill="#000000" font-family="sans-serif" font-size="11" lengthAdjust="spacingAndGlyphs" textLength="119" x="385.5" y="687.3739">train_dl : DataLoader</text>
    <text fill="#000000" font-family="sans-serif" font-size="11" lengthAdjust="spacingAndGlyphs" textLength="131" x="385.5" y="700.1786">valid_ds : BaseDataset</text>
    <text fill="#000000" font-family="sans-serif" font-size="11" lengthAdjust="spacingAndGlyphs" textLength="119" x="385.5" y="712.9833">valid_dl : DataLoader</text>
    <text fill="#000000" font-family="sans-serif" font-size="11" lengthAdjust="spacingAndGlyphs" textLength="0" x="389.5" y="725.7879"/>
    <text fill="#808080" font-family="sans-serif" font-size="11" lengthAdjust="spacingAndGlyphs" textLength="166" x="385.5" y="738.5926">Support batch examples with</text>
    <text fill="#808080" font-family="sans-serif" font-size="11" lengthAdjust="spacingAndGlyphs" textLength="147" x="385.5" y="751.3973">variable number of points</text>
    <line style="stroke: #A80036; stroke-width: 1.5;" x1="380.5" x2="556.5" y1="757.9916" y2="757.9916"/>
    <!--class Learner-->
    <g>
      <rect fill="#FEFECE" filter="url(#f81dk65rysg7f)" height="39.9688" id="Learner" style="stroke: #A80036; stroke-width: 1.5;" width="54" x="116.5" y="118.39"/>
      <line style="stroke: #A80036; stroke-width: 1.5;" x1="117.5" x2="169.5" y1="142.3588" y2="142.3588"/>
      <line style="stroke: #A80036; stroke-width: 1.5;" x1="117.5" x2="169.5" y1="150.3588" y2="150.3588"/>
      <a href="https://docs.fast.ai/basic_train.html#Learner" target="_blank" xlink:actuate="onRequest" xlink:show="new" xlink:title="https://docs.fast.ai/basic_train.html#Learner" xlink:type="simple" style="cursor: hand;">
        <text fill="#0000f0" font-family="sans-serif" font-size="12" lengthAdjust="spacingAndGlyphs" textLength="48" x="119.5" y="134.5287">Learner</text>
      </a>
    </g>
    <!--class ItemBase-->
    <g>
      <rect fill="#FEFECE" filter="url(#f81dk65rysg7f)" height="39.9688" id="ItemBase" style="stroke: #A80036; stroke-width: 1.5;" width="64" x="111.5" y="395.39"/>
      <line style="stroke: #A80036; stroke-width: 1.5;" x1="112.5" x2="174.5" y1="419.3588" y2="419.3588"/>
      <line style="stroke: #A80036; stroke-width: 1.5;" x1="112.5" x2="174.5" y1="427.3588" y2="427.3588"/>
      <a href="https://docs.fast.ai/core.html#ItemBase" target="_blank" xlink:actuate="onRequest" xlink:show="new" xlink:title="https://docs.fast.ai/core.html#ItemBase" xlink:type="simple" style="cursor: hand;">
        <text fill="#0000f0" font-family="sans-serif" font-size="12" lengthAdjust="spacingAndGlyphs" textLength="58" x="114.5" y="411.5287">ItemBase</text>
      </a>
    </g>
    <!--class ItemList-->
    <g>
      <rect fill="#FEFECE" filter="url(#f81dk65rysg7f)" height="39.9688" id="ItemList" style="stroke: #A80036; stroke-width: 1.5;" width="54" x="116.5" y="193.39"/>
      <line style="stroke: #A80036; stroke-width: 1.5;" x1="117.5" x2="169.5" y1="217.3588" y2="217.3588"/>
      <line style="stroke: #A80036; stroke-width: 1.5;" x1="117.5" x2="169.5" y1="225.3588" y2="225.3588"/>
      <a href="https://docs.fast.ai/data_block.html#ItemList" target="_blank" xlink:actuate="onRequest" xlink:show="new" xlink:title="https://docs.fast.ai/data_block.html#ItemList" xlink:type="simple" style="cursor: hand;">
        <text fill="#0000f0" font-family="sans-serif" font-size="12" lengthAdjust="spacingAndGlyphs" textLength="48" x="119.5" y="209.5287">ItemList</text>
      </a>
    </g>
    <!--class DataBunch-->
    <g>
      <rect fill="#FEFECE" filter="url(#f81dk65rysg7f)" height="91.1875" id="DataBunch" style="stroke: #A80036; stroke-width: 1.5;" width="131" x="78" y="268.89"/>
      <line style="stroke: #A80036; stroke-width: 1.5;" x1="79" x2="208" y1="292.8588" y2="292.8588"/>
      <text fill="#000000" font-family="sans-serif" font-size="11" lengthAdjust="spacingAndGlyphs" textLength="103" x="84" y="307.0692">train_ds : ItemList</text>
      <text fill="#000000" font-family="sans-serif" font-size="11" lengthAdjust="spacingAndGlyphs" textLength="119" x="84" y="319.8739">train_dl : DataLoader</text>
      <text fill="#000000" font-family="sans-serif" font-size="11" lengthAdjust="spacingAndGlyphs" textLength="103" x="84" y="332.6786">valid_ds : ItemList</text>
      <text fill="#000000" font-family="sans-serif" font-size="11" lengthAdjust="spacingAndGlyphs" textLength="119" x="84" y="345.4833">valid_dl : DataLoader</text>
      <line style="stroke: #A80036; stroke-width: 1.5;" x1="79" x2="208" y1="352.0775" y2="352.0775"/>
      <a href="https://docs.fast.ai/basic_data.html#DataBunch" target="_blank" xlink:actuate="onRequest" xlink:show="new" xlink:title="https://docs.fast.ai/basic_data.html#DataBunch" xlink:type="simple" style="cursor: hand;">
        <text fill="#0000f0" font-family="sans-serif" font-size="12" lengthAdjust="spacingAndGlyphs" textLength="69" x="109" y="285.0287">DataBunch</text>
      </a>
    </g>
    <!--class Dataset-->
    <g>
      <rect fill="#FEFECE" filter="url(#f81dk65rysg7f)" height="39.9688" id="Dataset" style="stroke: #A80036; stroke-width: 1.5;" width="56" x="440.5" y="301.39"/>
      <line style="stroke: #A80036; stroke-width: 1.5;" x1="441.5" x2="495.5" y1="325.3588" y2="325.3588"/>
      <line style="stroke: #A80036; stroke-width: 1.5;" x1="441.5" x2="495.5" y1="333.3588" y2="333.3588"/>
      <a href="https://pytorch.org/docs/stable/data.html#torch.utils.data.Dataset" target="_blank" xlink:actuate="onRequest" xlink:show="new" xlink:title="https://pytorch.org/docs/stable/data.html#torch.utils.data.Dataset" xlink:type="simple" style="cursor: hand;">
        <text fill="#0000f0" font-family="sans-serif" font-size="12" lengthAdjust="spacingAndGlyphs" textLength="50" x="443.5" y="317.5287">Dataset</text>
      </a>
    </g>
    <!--class DataLoader-->
    <g>
      <rect fill="#FEFECE" filter="url(#f81dk65rysg7f)" height="39.9688" id="DataLoader" style="stroke: #A80036; stroke-width: 1.5;" width="79" x="429" y="376.39"/>
      <line style="stroke: #A80036; stroke-width: 1.5;" x1="430" x2="507" y1="400.3588" y2="400.3588"/>
      <line style="stroke: #A80036; stroke-width: 1.5;" x1="430" x2="507" y1="408.3588" y2="408.3588"/>
      <a href="https://pytorch.org/docs/stable/data.html#torch.utils.data.DataLoader" target="_blank" xlink:actuate="onRequest" xlink:show="new" xlink:title="https://pytorch.org/docs/stable/data.html#torch.utils.data.DataLoader" xlink:type="simple" style="cursor: hand;">
        <text fill="#0000f0" font-family="sans-serif" font-size="12" lengthAdjust="spacingAndGlyphs" textLength="73" x="432" y="392.5287">DataLoader</text>
      </a>
    </g>
    <!--class Trimesh-->
    <g>
      <rect fill="#FEFECE" filter="url(#f81dk65rysg7f)" height="23.9688" id="Trimesh" style="stroke: #A80036; stroke-width: 1.5;" width="55" x="1393" y="1041.395"/>
      <a href="https://trimsh.org/trimesh.html#trimesh.base.Trimesh" target="_blank" xlink:actuate="onRequest" xlink:show="new" xlink:title="https://trimsh.org/trimesh.html#trimesh.base.Trimesh" xlink:type="simple" style="cursor: hand;">
        <text fill="#0000f0" font-family="sans-serif" font-size="12" lengthAdjust="spacingAndGlyphs" textLength="49" x="1396" y="1057.5337">Trimesh</text>
      </a>
    </g>
    <!--class Mesh-->
    <rect fill="#FEFECE" filter="url(#f81dk65rysg7f)" height="23.9688" id="Mesh" style="stroke: #A80036; stroke-width: 1.5;" width="39" x="1401" y="1156.395"/>
    <text fill="#000000" font-family="sans-serif" font-size="12" lengthAdjust="spacingAndGlyphs" textLength="33" x="1404" y="1172.5337">Mesh</text>
    <!--class Scatter-->
    <rect fill="#FEFECE" filter="url(#f81dk65rysg7f)" height="23.9688" id="Scatter" style="stroke: #A80036; stroke-width: 1.5;" width="52" x="1394.5" y="1215.395"/>
    <text fill="#000000" font-family="sans-serif" font-size="12" lengthAdjust="spacingAndGlyphs" textLength="46" x="1397.5" y="1231.5337">Scatter</text>
    <!--link Transform to RandTransform-->
    <path d="M575.076,1496.395 C601.174,1496.395 627.924,1496.395 649.901,1496.395 " fill="none" id="Transform-RandTransform" style="stroke: #A80036; stroke-width: 1.0; stroke-dasharray: 7.0,7.0;"/>
    <!--link Transform to TfmConvertItem-->
    <path d="M499.247,1453.183 C525.693,1417.669 567.32,1368.332 614,1337.395 C625.408,1329.834 638.937,1323.947 651.827,1319.47 " fill="none" id="Transform-TfmConvertItem" style="stroke: #A80036; stroke-width: 1.0;"/>
    <polygon fill="none" points="504.587,1457.744,487.192,1469.844,493.245,1449.537,504.587,1457.744" style="stroke: #A80036; stroke-width: 1.0;"/>
    <!--link Transform to TfmSpatial-->
    <path d="M574.928,1463.849 C607.404,1453.824 640.906,1443.482 664.976,1436.052 " fill="none" id="Transform-TfmSpatial" style="stroke: #A80036; stroke-width: 1.0;"/>
    <polygon fill="none" points="576.646,1470.645,555.471,1469.856,572.516,1457.268,576.646,1470.645" style="stroke: #A80036; stroke-width: 1.0;"/>
    <!--link TfmSpatial to TfmAffine-->
    <path d="M756.32,1425.395 C782.283,1425.395 812.325,1425.395 834.235,1425.395 " fill="none" id="TfmSpatial-TfmAffine" style="stroke: #A80036; stroke-width: 1.0;"/>
    <polygon fill="none" points="756.174,1432.394,736.174,1425.395,756.174,1418.394,756.174,1432.394" style="stroke: #A80036; stroke-width: 1.0;"/>
    <!--link Transform to TfmColors-->
    <path d="M518.494,1457.575 C545.547,1437.432 580.396,1413.524 614,1396.395 C630.818,1387.822 650.656,1380.694 666.987,1375.54 " fill="none" id="Transform-TfmColors" style="stroke: #A80036; stroke-width: 1.0;"/>
    <polygon fill="none" points="522.497,1463.325,502.336,1469.848,514.029,1452.176,522.497,1463.325" style="stroke: #A80036; stroke-width: 1.0;"/>
    <!--link BaseDataset to PointsDataset-->
    <path d="M766.925,694.791 C784.109,692.269 802.296,689.599 818.279,687.253 " fill="none" id="BaseDataset-PointsDataset" style="stroke: #A80036; stroke-width: 1.0;"/>
    <polygon fill="none" points="767.848,701.73,747.044,697.709,765.815,687.879,767.848,701.73" style="stroke: #A80036; stroke-width: 1.0;"/>
    <!--link BaseDataset to MeshesDataset-->
    <path d="M766.141,724.558 C782.023,729.512 798.807,734.747 813.947,739.47 " fill="none" id="BaseDataset-MeshesDataset" style="stroke: #A80036; stroke-width: 1.0;"/>
    <polygon fill="none" points="764.052,731.239,747.044,718.601,768.221,717.874,764.052,731.239" style="stroke: #A80036; stroke-width: 1.0;"/>
    <!--link ItemBase  to MeshItem-->
    <path d="M927.718,1110.395 C962.228,1106.416 1004.137,1101.584 1032.81,1098.278 " fill="none" id="ItemBase -MeshItem" style="stroke: #A80036; stroke-width: 1.0;"/>
    <polygon fill="none" points="928.042,1117.403,907.372,1112.74,926.438,1103.496,928.042,1117.403" style="stroke: #A80036; stroke-width: 1.0;"/>
    <!--link ItemBase  to PointsItem-->
    <path d="M911.036,1076.78 C947.248,1043.381 997.883,996.68 1031.4,965.764 " fill="none" id="ItemBase -PointsItem" style="stroke: #A80036; stroke-width: 1.0;"/>
    <polygon fill="none" points="915.457,1082.226,896.009,1090.639,905.965,1071.934,915.457,1082.226" style="stroke: #A80036; stroke-width: 1.0;"/>
    <!--link PointsDataset to PointsItem-->
    <path d="M925.77,697.73 C937.372,703.043 948.791,709.824 958,718.395 C1001.002,758.415 1029.48,819.267 1046.43,866.031 " fill="none" id="PointsDataset-PointsItem" style="stroke: #A80036; stroke-width: 1.0;"/>
    <polygon fill="#A80036" points="913.698,692.712,917.703,698.7087,924.7788,697.3181,920.7738,691.3215,913.698,692.712" style="stroke: #A80036; stroke-width: 1.0;"/>
    <text fill="#000000" font-family="sans-serif" font-size="13" lengthAdjust="spacingAndGlyphs" textLength="36" x="1006.4009" y="855.4049">many</text>
    <!--link MeshesDataset to MeshItem-->
    <path d="M902.835,784.305 C921.94,801.565 944.272,825.025 958,850.395 C994.48,917.81 961.303,950.562 997,1018.395 C1005.993,1035.483 1019.77,1051.679 1032.69,1064.695 " fill="none" id="MeshesDataset-MeshItem" style="stroke: #A80036; stroke-width: 1.0;"/>
    <polygon fill="#A80036" points="892.915,775.624,894.7959,782.5855,901.9453,783.5268,900.0644,776.5653,892.915,775.624" style="stroke: #A80036; stroke-width: 1.0;"/>
    <text fill="#000000" font-family="sans-serif" font-size="13" lengthAdjust="spacingAndGlyphs" textLength="36" x="988.9324" y="1073.5259">many</text>
    <!--link SparseDataBunch to BaseDataset-->
    <path d="M570.975,702.718 C599.96,703.096 630.107,703.489 653.913,703.8 " fill="none" id="SparseDataBunch-BaseDataset" style="stroke: #A80036; stroke-width: 1.0;"/>
    <polygon fill="#A80036" points="557.766,702.546,563.7136,706.6235,569.765,702.7016,563.8174,698.6241,557.766,702.546" style="stroke: #A80036; stroke-width: 1.0;"/>
    <!--link ItemBase to ItemBase -->
    <path d="M145.74,455.81 C152.052,648.25 183.59,1465.413 266,1539.395 C434.34,1690.518 607.267,1691.1909 775,1539.395 C818.053,1500.432 787.313,1335.824 801,1279.395 C812.975,1230.023 836.795,1175.684 851.757,1144.16 " fill="none" id="ItemBase-ItemBase " style="stroke: #A80036; stroke-width: 1.0;"/>
    <polygon fill="none" points="138.742,455.97,145.101,435.75,152.735,455.52,138.742,455.97" style="stroke: #A80036; stroke-width: 1.0;"/>
    <!--link ItemList to BaseDataset-->
    <path d="M190.448,205.16 C279.942,192.04 477.902,177.82 581.5,285.39 C611.642,316.69 602.351,436.09 606,479.39 C607.756,500.23 602.152,650.17 614,667.395 C623.257,680.854 638.518,689.453 653.605,694.931 " fill="none" id="ItemList-BaseDataset" style="stroke: #A80036; stroke-width: 1.0;"/>
    <polygon fill="none" points="191.489,212.08,170.637,208.31,189.288,198.26,191.489,212.08" style="stroke: #A80036; stroke-width: 1.0;"/>
    <!--link Dataset to BaseDataset-->
    <path d="M516.701,325.23 C539.767,329.67 565.859,338.98 581.5,358.39 C668.144,465.92 532.245,556.11 614,667.395 C623.576,680.429 638.717,688.927 653.614,694.442 " fill="none" id="Dataset-BaseDataset" style="stroke: #A80036; stroke-width: 1.0;"/>
    <polygon fill="none" points="515.565,332.14,496.755,322.39,517.544,318.28,515.565,332.14" style="stroke: #A80036; stroke-width: 1.0;"/>
    <!--link Trimesh to Meshes-->
    <path d="M1448.15,1053.395 C1483.835,1053.395 1549.28,1053.395 1606.545,1053.395 C1620.8613,1053.395 1634.6663,1053.395 1647.3672,1053.395 C1653.7177,1053.395 1659.7921,1053.395 1665.5164,1053.395 C1668.3786,1053.395 1671.1533,1053.395 1673.8311,1053.395 C1675.17,1053.395 1676.4847,1053.395 1677.7741,1053.395 " fill="none" id="Trimesh-Meshes" style="stroke: #A80036; stroke-width: 1.0; stroke-dasharray: 7.0,7.0;"/>
    <text fill="#000000" font-family="sans-serif" font-size="13" lengthAdjust="spacingAndGlyphs" textLength="84" x="1519.5" y="1049.4619">read meshes</text>
    <!--link MeshItem to Trimesh-->
    <path d="M1115.25,1088.934 C1189.85,1080.22 1333.46,1063.445 1392.82,1056.511 " fill="none" id="MeshItem-Trimesh" style="stroke: #A80036; stroke-width: 1.0;"/>
    <polygon fill="#A80036" points="1102.16,1090.463,1108.5851,1093.7369,1114.0783,1089.0652,1107.6532,1085.7913,1102.16,1090.463" style="stroke: #A80036; stroke-width: 1.0;"/>
    <text fill="#000000" font-family="sans-serif" font-size="13" lengthAdjust="spacingAndGlyphs" textLength="137" x="1184.5" y="1031.4619">used for files reading,</text>
    <text fill="#000000" font-family="sans-serif" font-size="13" lengthAdjust="spacingAndGlyphs" textLength="110" x="1200" y="1046.5947">calc the normals,</text>
    <text fill="#000000" font-family="sans-serif" font-size="13" lengthAdjust="spacingAndGlyphs" textLength="110" x="1198" y="1061.7275">some transforms</text>
    <!--link ItemBase  to ipyvolume-->
    <path d="M919.317,1140.644 C942.792,1150.575 971.001,1161.827 997,1170.395 C1088.115,1200.422 1192.8075,1226.2518 1275.1825,1244.6589 C1295.7763,1249.2607 1314.9752,1253.3985 1332.2184,1257.0221 C1340.84,1258.8339 1348.9726,1260.5171 1356.5463,1262.0654 C1360.3331,1262.8395 1363.9802,1263.58 1367.4787,1264.2859 C1368.3533,1264.4624 1369.2187,1264.6367 1370.0746,1264.8089 " fill="none" id="ItemBase -ipyvolume" style="stroke: #A80036; stroke-width: 1.0;"/>
    <polygon fill="#A80036" points="907.159,1135.441,911.1009,1141.4793,918.1909,1140.1631,914.249,1134.1248,907.159,1135.441" style="stroke: #A80036; stroke-width: 1.0;"/>
    <text fill="#000000" font-family="sans-serif" font-size="13" lengthAdjust="spacingAndGlyphs" textLength="110" x="1309.46" y="1286.4539">used for 3D show</text>
    <!--link PointsItem to pts-->
    <path d="M1103.77,924.679 C1225.96,894.486 1627.81,795.187 1703.61,776.457 " fill="none" id="PointsItem-pts" style="stroke: #A80036; stroke-width: 1.0; stroke-dasharray: 7.0,7.0;"/>
    <!--link datasets to Data source-->
    <path d="M829.3233,609.3257 C829.6162,609.2961 829.9092,609.2667 830.2022,609.2377 C832.546,609.0054 834.8902,608.7921 837.2316,608.5996 C846.5973,607.8292 855.919,607.39 865,607.39 C865,607.39 865,607.39 1421.5,607.39 C1488.675,607.39 1561.0675,628.4668 1617.2675,649.8729 C1624.2925,652.5486 1631.0645,655.2296 1637.5417,657.8751 C1640.7802,659.1979 1643.9451,660.5118 1647.0311,661.8118 C1647.4168,661.9743 1647.8013,662.1366 1648.1846,662.2986 " fill="none" id="datasets-Data source" style="stroke: #A80036; stroke-width: 1.0; stroke-dasharray: 7.0,7.0;"/>
    <path d="M1002,558.39 L1002,598.39 L1129,598.39 L1129,568.39 L1119,558.39 L1002,558.39 " fill="#FBFB77" filter="url(#f81dk65rysg7f)" style="stroke: #A80036; stroke-width: 1.0;"/>
    <path d="M1119,558.39 L1119,568.39 L1129,568.39 L1119,558.39 " fill="#FBFB77" style="stroke: #A80036; stroke-width: 1.0;"/>
    <text fill="#000000" font-family="sans-serif" font-size="13" lengthAdjust="spacingAndGlyphs" textLength="106" x="1008" y="575.4569">datasets loading</text>
    <text fill="#000000" font-family="sans-serif" font-size="13" lengthAdjust="spacingAndGlyphs" textLength="106" x="1008" y="590.5897">files from source</text>
    <!--link DataBunch to SparseDataBunch-->
    <path d="M225.743,353.35 C234.609,360.32 242.689,368.32 249,377.39 C260.618,394.11 257.169,449.06 266,467.39 C297.054,531.88 350.516,592.74 394.571,636.23 " fill="none" id="DataBunch-SparseDataBunch" style="stroke: #A80036; stroke-width: 1.0;"/>
    <polygon fill="none" points="221.619,359.01,209.147,341.88,229.579,347.49,221.619,359.01" style="stroke: #A80036; stroke-width: 1.0;"/>
    <!--link SparseDataBunch to DataLoader-->
    <path d="M368.945,639.27 C305.668,591.05 238.865,518.91 257.5,437.89 C272.647,372.04 371.853,378.56 428.681,388.04 " fill="none" id="SparseDataBunch-DataLoader" style="stroke: #A80036; stroke-width: 1.0;"/>
    <polygon fill="#A80036" points="379.465,647.1,377.0393,640.3091,369.8378,639.9363,372.2635,646.7272,379.465,647.1" style="stroke: #A80036; stroke-width: 1.0;"/>
    <!--link fast.ai to torch-->
  </g>
</svg>
