<svg xmlns="http://www.w3.org/2000/svg" xmlns:xlink="http://www.w3.org/1999/xlink" contentScriptType="application/ecmascript" contentStyleType="text/css" height="1185px" preserveAspectRatio="none" style="width:1669px;height:1185px;" version="1.1" viewBox="0 0 1669 1185" width="1669px" zoomAndPan="magnify">
  <defs>
    <filter height="300%" id="fhhin1x4481k0" width="300%" x="-1" y="-1">
      <feGaussianBlur result="blurOut" stdDeviation="2.0"/>
      <feColorMatrix in="blurOut" result="blurOut2" type="matrix" values="0 0 0 0 0 0 0 0 0 0 0 0 0 0 0 0 0 0 .4 0"/>
      <feOffset dx="4.0" dy="4.0" in="blurOut2" result="blurOut3"/>
      <feBlend in="SourceGraphic" in2="blurOut3" mode="normal"/>
    </filter>
  </defs>
  <g>
    <!--cluster Data source-->
    <polygon fill="#DDDDDD" filter="url(#fhhin1x4481k0)" points="1476.5,665,1486.5,655,1647.5,655,1647.5,1084,1637.5,1094,1476.5,1094,1476.5,665" style="stroke: #000000; stroke-width: 1.5;"/>
    <line style="stroke: #000000; stroke-width: 1.5;" x1="1637.5" x2="1646.5" y1="665" y2="656"/>
    <line style="stroke: #000000; stroke-width: 1.5;" x1="1476.5" x2="1637.5" y1="665" y2="665"/>
    <line style="stroke: #000000; stroke-width: 1.5;" x1="1637.5" x2="1637.5" y1="665" y2="1094"/>
    <text fill="#000000" font-family="sans-serif" font-size="14" font-weight="bold" lengthAdjust="spacingAndGlyphs" textLength="95" x="1510.5" y="680.9951">Data source</text>
    <!--cluster Meshes-->
    <path d="M1531.8893,885.6533 C1537.2794,877.7798 1542.6395,877.7421 1547.558,886.1083 C1551.0883,878.8434 1557.422,878.3961 1562.5117,884.3432 C1567.7552,876.0617 1575.5272,877.8308 1579.2853,885.8698 C1583.1587,879.5838 1588.6139,879.1577 1593.2417,885.0019 C1599.4907,888.1174 1600.9527,892.9946 1595.179,897.914 C1600.0271,900.7315 1601.1136,904.2467 1596.3981,908.1978 C1602.5911,911.2122 1601.9788,915.8349 1597.2336,919.6475 C1602.7031,921.953 1603.3365,926.0777 1598.3264,929.5408 C1605.001,932.1419 1604.1271,937.3378 1599.6091,941.1731 C1606.1523,943.1788 1607.3759,948.2146 1601.935,952.6491 C1606.3811,955.1099 1607.2123,959.6672 1602.6896,962.795 C1608.3233,966.9893 1608.2441,971.0335 1601.8456,974.3489 C1606.5324,977.8384 1606.3645,983.0357 1600.4409,985.1446 C1605.2318,989.3317 1604.6572,993.6834 1598.3388,995.6469 C1603.2515,999.3827 1601.4528,1003.4429 1596.7033,1005.5893 C1601.482,1009.3773 1602.5198,1013.379 1596.62,1017.0896 C1600.347,1021.6043 1601.28,1025.2683 1594.6734,1027.9268 C1599.6842,1032.2266 1598.5239,1037.0881 1592.8871,1039.7838 C1588.7592,1045.7771 1583.7235,1047.3554 1578.9773,1040.4506 C1574.5916,1047.3434 1568.2393,1048.1724 1562.8932,1041.5976 C1557.2004,1048.0722 1552.6298,1048.6568 1548.0106,1040.5051 C1542.8256,1048.8259 1536.6734,1047.0304 1532.0943,1039.8818 C1526.0482,1035.7292 1527.0245,1030.6381 1532.9525,1027.3025 C1525.487,1023.5621 1526.2879,1018.7157 1531.6728,1013.761 C1524.5494,1010.0159 1523.8439,1006.1455 1530.2748,1000.9242 C1525.0983,997.2207 1524.5893,991.4724 1530.4516,987.9189 C1523.9644,983.5415 1524.3832,979.0522 1530.0238,974.294 C1524.584,970.8663 1524.9432,967.295 1529.8286,963.6774 C1523.4457,959.1209 1521.8453,954.1501 1529.4685,949.2441 C1523.5659,945.5085 1523.9765,940.2536 1529.6112,936.6487 C1525.4036,932.8787 1525.6248,927.4888 1531.3526,925.2346 C1524.6459,921.103 1524.8357,914.6867 1531.2914,910.5004 C1526.3104,906.6322 1526.5449,902.7339 1532.2952,899.8799 C1525.8945,895.2637 1524.9216,890.6508 1531.8893,885.6533 " fill="#DDDDDD" style="stroke: #000000; stroke-width: 1.5;"/>
    <text fill="#000000" font-family="sans-serif" font-size="14" font-weight="bold" lengthAdjust="spacingAndGlyphs" textLength="61" x="1531.5" y="902.9951">Meshes</text>
    <!--cluster Points-->
    <path d="M1538.9484,720.6651 C1541.5624,714.7805 1546.5804,712.9995 1551.2565,718.42 C1553.2634,711.4525 1559.5228,710.9431 1564.1645,715.458 C1568.9615,710.411 1574.6155,711.0562 1576.307,718.4813 C1580.277,712.3107 1585.8157,711.9967 1589.1626,719.0855 C1595.3563,723.9915 1595.5992,728.3227 1588.1755,732.2041 C1594.8782,735.4485 1594.9201,740.1852 1589.2284,744.4917 C1594.0776,748.2292 1593.7768,752.4721 1588.8361,755.8722 C1593.8614,757.8771 1595.4726,762.3523 1590.9829,766.3136 C1597.1778,770.0003 1596.2286,775.6611 1590.1296,778.4861 C1594.8772,782.1876 1596.2878,787.5423 1589.5236,790.6713 C1594.4182,794.4743 1594.5444,799.0722 1588.6937,802.0947 C1595.1125,805.0678 1595.8924,808.9033 1590.1832,813.4652 C1596.5644,817.0826 1594.9895,823.4102 1589.3979,826.2948 C1594.8925,830.6829 1593.5255,834.4277 1588.0543,837.5011 C1586.3653,843.1343 1581.128,844.7327 1576.651,840.8379 C1573.79,847.6595 1569.1701,848.4869 1563.5401,844.0676 C1558.9396,848.0368 1553.3705,847.6088 1552.1633,840.563 C1547.3992,845.8206 1541.4718,846.3053 1538.6182,838.5712 C1532.3134,834.8564 1531.4832,829.4605 1538.4198,825.544 C1533.4897,823.6727 1532.0529,818.7451 1536.9864,815.4703 C1529.646,811.6724 1528.6346,807.4039 1535.0358,801.6645 C1529.8752,799.0502 1530.5004,795.0179 1534.5545,791.9472 C1529.1867,788.6832 1528.0335,783.9839 1533.7815,780.0006 C1528.1571,776.0525 1528.6018,771.4028 1534.3702,768.0142 C1529.1347,763.1235 1529.1972,759.1985 1535.792,755.6705 C1530.2618,751.0902 1531.2085,746.6636 1536.6798,742.8447 C1532.7247,738.6202 1533.1638,735.3273 1538.2412,732.4611 C1532.3273,728.0961 1532.8874,724.3122 1538.9484,720.6651 " fill="#DDDDDD" style="stroke: #000000; stroke-width: 1.5;"/>
    <text fill="#000000" font-family="sans-serif" font-size="14" font-weight="bold" lengthAdjust="spacingAndGlyphs" textLength="49" x="1538" y="736.9951">Points</text>
    <!--cluster fast_sparse-->
    <polygon fill="#FFFFFF" filter="url(#fhhin1x4481k0)" points="218,340,315,340,322,362.2969,1012.5,362.2969,1012.5,1173,218,1173,218,340" style="stroke: #000000; stroke-width: 1.5;"/>
    <line style="stroke: #000000; stroke-width: 1.5;" x1="218" x2="322" y1="362.2969" y2="362.2969"/>
    <text fill="#000000" font-family="sans-serif" font-size="14" font-weight="bold" lengthAdjust="spacingAndGlyphs" textLength="91" x="222" y="354.9951">fast_sparse</text>
    <!--cluster 3D augmentation-->
    <a href="augmentation.svg" target="_top" xlink:actuate="onRequest" xlink:show="new" xlink:title="augmentation.svg" xlink:type="simple">
      <rect fill="#FFFFFF" filter="url(#fhhin1x4481k0)" height="343" style="stroke: #000000; stroke-width: 1.0; stroke-dasharray: 7.0,7.0;" width="539.5" x="243" y="383"/>
      <text fill="#000000" font-family="sans-serif" font-size="14" font-weight="bold" lengthAdjust="spacingAndGlyphs" textLength="134" x="445.75" y="397.9951">3D augmentation</text>
    </a>
    <!--cluster transforms-->
    <polygon fill="#FFFFFF" filter="url(#fhhin1x4481k0)" points="267,426,360,426,367,448.2969,758.5,448.2969,758.5,702,267,702,267,426" style="stroke: #000000; stroke-width: 1.5;"/>
    <line style="stroke: #000000; stroke-width: 1.5;" x1="267" x2="367" y1="448.2969" y2="448.2969"/>
    <text fill="#000000" font-family="sans-serif" font-size="14" font-weight="bold" lengthAdjust="spacingAndGlyphs" textLength="87" x="271" y="440.9951">transforms</text>
    <!--cluster data -->
    <rect fill="#FFFFFF" filter="url(#fhhin1x4481k0)" height="399" style="stroke: #000000; stroke-width: 1.0; stroke-dasharray: 7.0,7.0;" width="746.5" x="242" y="750"/>
    <text fill="#000000" font-family="sans-serif" font-size="14" font-weight="bold" lengthAdjust="spacingAndGlyphs" textLength="34" x="595.75" y="764.9951">data</text>
    <!--cluster datasets-->
    <polygon fill="#FFFFFF" filter="url(#fhhin1x4481k0)" points="478,959,552,959,559,981.2969,787,981.2969,787,1117,478,1117,478,959" style="stroke: #000000; stroke-width: 1.5;"/>
    <line style="stroke: #000000; stroke-width: 1.5;" x1="478" x2="559" y1="981.2969" y2="981.2969"/>
    <text fill="#000000" font-family="sans-serif" font-size="14" font-weight="bold" lengthAdjust="spacingAndGlyphs" textLength="68" x="482" y="973.9951">datasets</text>
    <!--cluster data_items-->
    <polygon fill="#FFFFFF" filter="url(#fhhin1x4481k0)" points="663,793,753,793,760,815.2969,964.5,815.2969,964.5,927,663,927,663,793" style="stroke: #000000; stroke-width: 1.5;"/>
    <line style="stroke: #000000; stroke-width: 1.5;" x1="663" x2="760" y1="815.2969" y2="815.2969"/>
    <text fill="#000000" font-family="sans-serif" font-size="14" font-weight="bold" lengthAdjust="spacingAndGlyphs" textLength="84" x="667" y="807.9951">data_items</text>
    <!--cluster data-->
    <polygon fill="#FFFFFF" filter="url(#fhhin1x4481k0)" points="266,793,306,793,313,815.2969,417,815.2969,417,868,266,868,266,793" style="stroke: #000000; stroke-width: 1.5;"/>
    <line style="stroke: #000000; stroke-width: 1.5;" x1="266" x2="313" y1="815.2969" y2="815.2969"/>
    <text fill="#000000" font-family="sans-serif" font-size="14" font-weight="bold" lengthAdjust="spacingAndGlyphs" textLength="34" x="270" y="807.9951">data</text>
    <!--cluster fast.ai-->
    <g>
      <polygon fill="#DDDDDD" filter="url(#fhhin1x4481k0)" points="54,56,108,56,115,78.2969,177,78.2969,177,284,54,284,54,56" style="stroke: #000000; stroke-width: 1.5;"/>
      <line style="stroke: #000000; stroke-width: 1.5;" x1="54" x2="115" y1="78.2969" y2="78.2969"/>
      <a href="https://docs.fast.ai/index.html" target="_blank" xlink:actuate="onRequest" xlink:show="new" xlink:title="https://docs.fast.ai/index.html" xlink:type="simple">
        <text fill="#0000f0" font-family="sans-serif" font-size="14" font-weight="bold" lengthAdjust="spacingAndGlyphs" textLength="48" x="58" y="70.9951">fast.ai</text>
      </a>
    </g>
    <!--cluster torch-->
    <g>
      <polygon fill="#DDDDDD" filter="url(#fhhin1x4481k0)" points="278,115,326,115,333,137.2969,405,137.2969,405,284,278,284,278,115" style="stroke: #000000; stroke-width: 1.5;"/>
      <line style="stroke: #000000; stroke-width: 1.5;" x1="278" x2="333" y1="137.2969" y2="137.2969"/>
      <a href="https://pytorch.org/docs/stable/index.html" target="_blank" xlink:actuate="onRequest" xlink:show="new" xlink:title="https://pytorch.org/docs/stable/index.html" xlink:type="simple">
        <text fill="#0000f0" font-family="sans-serif" font-size="14" font-weight="bold" lengthAdjust="spacingAndGlyphs" textLength="42" x="282" y="129.9951">torch</text>
      </a>
    </g>
    <!--cluster trimesh-->
    <g>
      <polygon fill="#DDDDDD" filter="url(#fhhin1x4481k0)" points="1222,816,1288,816,1295,838.2969,1309,838.2969,1309,891,1222,891,1222,816" style="stroke: #000000; stroke-width: 1.5;"/>
      <line style="stroke: #000000; stroke-width: 1.5;" x1="1222" x2="1295" y1="838.2969" y2="838.2969"/>
      <a href="https://github.com/mikedh/trimesh" target="_blank" xlink:actuate="onRequest" xlink:show="new" xlink:title="https://github.com/mikedh/trimesh" xlink:type="simple">
        <text fill="#0000f0" font-family="sans-serif" font-size="14" font-weight="bold" lengthAdjust="spacingAndGlyphs" textLength="60" x="1226" y="830.9951">trimesh</text>
      </a>
    </g>
    <!--cluster ipyvolume-->
    <g>
      <polygon fill="#DDDDDD" filter="url(#fhhin1x4481k0)" points="1215.5,923,1301.5,923,1308.5,945.2969,1315.5,945.2969,1315.5,1092,1215.5,1092,1215.5,923" style="stroke: #000000; stroke-width: 1.5;"/>
      <line style="stroke: #000000; stroke-width: 1.5;" x1="1215.5" x2="1308.5" y1="945.2969" y2="945.2969"/>
      <a href="https://ipyvolume.readthedocs.io/en/latest/#" target="_blank" xlink:actuate="onRequest" xlink:show="new" xlink:title="https://ipyvolume.readthedocs.io/en/latest/#" xlink:type="simple">
        <text fill="#0000f0" font-family="sans-serif" font-size="14" font-weight="bold" lengthAdjust="spacingAndGlyphs" textLength="80" x="1219.5" y="937.9951">ipyvolume</text>
      </a>
    </g>
    <!--class ply-->
    <rect fill="#FEFECE" filter="url(#fhhin1x4481k0)" height="23.9688" id="ply" style="stroke: #A80036; stroke-width: 1.5;" width="23" x="1550.5" y="920"/>
    <text fill="#000000" font-family="sans-serif" font-size="12" lengthAdjust="spacingAndGlyphs" textLength="17" x="1553.5" y="936.1387">ply</text>
    <!--class stl-->
    <rect fill="#FEFECE" filter="url(#fhhin1x4481k0)" height="23.9688" id="stl" style="stroke: #A80036; stroke-width: 1.5;" width="21" x="1551.5" y="979"/>
    <text fill="#000000" font-family="sans-serif" font-size="12" lengthAdjust="spacingAndGlyphs" textLength="15" x="1554.5" y="995.1387">stl</text>
    <!--class pts-->
    <rect fill="#FEFECE" filter="url(#fhhin1x4481k0)" height="23.9688" id="pts" style="stroke: #A80036; stroke-width: 1.5;" width="26" x="1549" y="746"/>
    <text fill="#000000" font-family="sans-serif" font-size="12" lengthAdjust="spacingAndGlyphs" textLength="20" x="1552" y="762.1387">pts</text>
    <!--class npy-->
    <rect fill="#FEFECE" filter="url(#fhhin1x4481k0)" height="23.9688" id="npy" style="stroke: #A80036; stroke-width: 1.5;" width="28" x="1548" y="805"/>
    <text fill="#000000" font-family="sans-serif" font-size="12" lengthAdjust="spacingAndGlyphs" textLength="22" x="1551" y="821.1387">npy</text>
    <!--class TfmConvertItem-->
    <rect fill="#FEFECE" filter="url(#fhhin1x4481k0)" height="23.9688" id="TfmConvertItem" style="stroke: #A80036; stroke-width: 1.5;" width="103" x="494" y="579"/>
    <text fill="#000000" font-family="sans-serif" font-size="12" lengthAdjust="spacingAndGlyphs" textLength="97" x="497" y="595.1387">TfmConvertItem</text>
    <!--class TfmSpatial-->
    <rect fill="#FEFECE" filter="url(#fhhin1x4481k0)" height="23.9688" id="TfmSpatial" style="stroke: #A80036; stroke-width: 1.5;" width="71" x="510" y="520"/>
    <text fill="#000000" font-family="sans-serif" font-size="12" lengthAdjust="spacingAndGlyphs" textLength="65" x="513" y="536.1387">TfmSpatial</text>
    <!--class TfmAffine-->
    <rect fill="#FEFECE" filter="url(#fhhin1x4481k0)" height="23.9688" id="TfmAffine" style="stroke: #A80036; stroke-width: 1.5;" width="63" x="679.5" y="520"/>
    <text fill="#000000" font-family="sans-serif" font-size="12" lengthAdjust="spacingAndGlyphs" textLength="57" x="682.5" y="536.1387">TfmAffine</text>
    <!--class TfmColors-->
    <rect fill="#FEFECE" filter="url(#fhhin1x4481k0)" height="23.9688" id="TfmColors" style="stroke: #A80036; stroke-width: 1.5;" width="67" x="512" y="461"/>
    <text fill="#000000" font-family="sans-serif" font-size="12" lengthAdjust="spacingAndGlyphs" textLength="61" x="515" y="477.1387">TfmColors</text>
    <!--class Transform-->
    <rect fill="#FEFECE" filter="url(#fhhin1x4481k0)" height="23.9688" id="Transform" style="stroke: #A80036; stroke-width: 1.5;" width="69" x="307" y="638"/>
    <text fill="#000000" font-family="sans-serif" font-size="12" lengthAdjust="spacingAndGlyphs" textLength="63" x="310" y="654.1387">Transform</text>
    <!--class RandTransform-->
    <rect fill="#FEFECE" filter="url(#fhhin1x4481k0)" height="23.9688" id="RandTransform" style="stroke: #A80036; stroke-width: 1.5;" width="101" x="495" y="638"/>
    <text fill="#000000" font-family="sans-serif" font-size="12" lengthAdjust="spacingAndGlyphs" textLength="95" x="498" y="654.1387">RandTransform</text>
    <!--class BaseDataset-->
    <rect fill="#FEFECE" filter="url(#fhhin1x4481k0)" height="23.9688" id="BaseDataset" style="stroke: #A80036; stroke-width: 1.5;" width="87" x="502" y="1002"/>
    <text fill="#000000" font-family="sans-serif" font-size="12" lengthAdjust="spacingAndGlyphs" textLength="81" x="505" y="1018.1387">BaseDataset</text>
    <!--class PointsDataset-->
    <rect fill="#FEFECE" filter="url(#fhhin1x4481k0)" height="23.9688" id="PointsDataset" style="stroke: #A80036; stroke-width: 1.5;" width="95" x="663.5" y="1002"/>
    <text fill="#000000" font-family="sans-serif" font-size="12" lengthAdjust="spacingAndGlyphs" textLength="89" x="666.5" y="1018.1387">PointsDataset</text>
    <!--class MeshesDataset-->
    <rect fill="#FEFECE" filter="url(#fhhin1x4481k0)" height="23.9688" id="MeshesDataset" style="stroke: #A80036; stroke-width: 1.5;" width="104" x="659" y="1061"/>
    <text fill="#000000" font-family="sans-serif" font-size="12" lengthAdjust="spacingAndGlyphs" textLength="98" x="662" y="1077.1387">MeshesDataset</text>
    <!--class ItemBase-->
    <rect fill="#FEFECE" filter="url(#fhhin1x4481k0)" height="23.9688" id="ItemBase" style="stroke: #A80036; stroke-width: 1.5;" width="64" x="679" y="887"/>
    <text fill="#000000" font-family="sans-serif" font-size="12" lengthAdjust="spacingAndGlyphs" textLength="58" x="682" y="903.1387">ItemBase</text>
    <!--class MeshItem-->
    <rect fill="#FEFECE" filter="url(#fhhin1x4481k0)" height="23.9688" id="MeshItem" style="stroke: #A80036; stroke-width: 1.5;" width="66" x="879.5" y="887"/>
    <text fill="#000000" font-family="sans-serif" font-size="12" lengthAdjust="spacingAndGlyphs" textLength="60" x="882.5" y="903.1387">MeshItem</text>
    <!--class PointsItem-->
    <rect fill="#FEFECE" filter="url(#fhhin1x4481k0)" height="23.9688" id="PointsItem" style="stroke: #A80036; stroke-width: 1.5;" width="72" x="876.5" y="828"/>
    <text fill="#000000" font-family="sans-serif" font-size="12" lengthAdjust="spacingAndGlyphs" textLength="66" x="879.5" y="844.1387">PointsItem</text>
    <!--class SparseDataBunch-->
    <rect fill="#FEFECE" filter="url(#fhhin1x4481k0)" height="23.9688" id="SparseDataBunch" style="stroke: #A80036; stroke-width: 1.5;" width="119" x="282" y="828"/>
    <text fill="#000000" font-family="sans-serif" font-size="12" lengthAdjust="spacingAndGlyphs" textLength="113" x="285" y="844.1387">SparseDataBunch</text>
    <!--class Learner-->
    <g>
      <rect fill="#FEFECE" filter="url(#fhhin1x4481k0)" height="23.9688" id="Learner" style="stroke: #A80036; stroke-width: 1.5;" width="54" x="88.5" y="118"/>
      <a href="https://docs.fast.ai/basic_train.html#Learner" target="_blank" xlink:actuate="onRequest" xlink:show="new" xlink:title="https://docs.fast.ai/basic_train.html#Learner" xlink:type="simple">
        <text fill="#0000f0" font-family="sans-serif" font-size="12" lengthAdjust="spacingAndGlyphs" textLength="48" x="91.5" y="134.1387">Learner</text>
      </a>
    </g>
    <!--class ItemList-->
    <g>
      <rect fill="#FEFECE" filter="url(#fhhin1x4481k0)" height="23.9688" id="ItemList" style="stroke: #A80036; stroke-width: 1.5;" width="54" x="88.5" y="236"/>
      <a href="https://docs.fast.ai/data_block.html#ItemList" target="_blank" xlink:actuate="onRequest" xlink:show="new" xlink:title="https://docs.fast.ai/data_block.html#ItemList" xlink:type="simple">
        <text fill="#0000f0" font-family="sans-serif" font-size="12" lengthAdjust="spacingAndGlyphs" textLength="48" x="91.5" y="252.1387">ItemList</text>
      </a>
    </g>
    <!--class DataBunch-->
    <g>
      <rect fill="#FEFECE" filter="url(#fhhin1x4481k0)" height="23.9688" id="DataBunch" style="stroke: #A80036; stroke-width: 1.5;" width="75" x="78" y="177"/>
      <a href="https://docs.fast.ai/basic_data.html#DataBunch" target="_blank" xlink:actuate="onRequest" xlink:show="new" xlink:title="https://docs.fast.ai/basic_data.html#DataBunch" xlink:type="simple">
        <text fill="#0000f0" font-family="sans-serif" font-size="12" lengthAdjust="spacingAndGlyphs" textLength="69" x="81" y="193.1387">DataBunch</text>
      </a>
    </g>
    <!--class Dataset-->
    <g>
      <rect fill="#FEFECE" filter="url(#fhhin1x4481k0)" height="23.9688" id="Dataset" style="stroke: #A80036; stroke-width: 1.5;" width="56" x="313.5" y="158"/>
      <a href="https://pytorch.org/docs/stable/data.html#torch.utils.data.Dataset" target="_blank" xlink:actuate="onRequest" xlink:show="new" xlink:title="https://pytorch.org/docs/stable/data.html#torch.utils.data.Dataset" xlink:type="simple">
        <text fill="#0000f0" font-family="sans-serif" font-size="12" lengthAdjust="spacingAndGlyphs" textLength="50" x="316.5" y="174.1387">Dataset</text>
      </a>
    </g>
    <!--class DataLoader-->
    <g>
      <rect fill="#FEFECE" filter="url(#fhhin1x4481k0)" height="23.9688" id="DataLoader" style="stroke: #A80036; stroke-width: 1.5;" width="79" x="302" y="217"/>
      <a href="https://pytorch.org/docs/stable/data.html#torch.utils.data.DataLoader" target="_blank" xlink:actuate="onRequest" xlink:show="new" xlink:title="https://pytorch.org/docs/stable/data.html#torch.utils.data.DataLoader" xlink:type="simple">
        <text fill="#0000f0" font-family="sans-serif" font-size="12" lengthAdjust="spacingAndGlyphs" textLength="73" x="305" y="233.1387">DataLoader</text>
      </a>
    </g>
    <!--class Trimesh-->
    <g>
      <rect fill="#FEFECE" filter="url(#fhhin1x4481k0)" height="23.9688" id="Trimesh" style="stroke: #A80036; stroke-width: 1.5;" width="55" x="1238" y="851"/>
      <a href="https://trimsh.org/trimesh.html#trimesh.base.Trimesh" target="_blank" xlink:actuate="onRequest" xlink:show="new" xlink:title="https://trimsh.org/trimesh.html#trimesh.base.Trimesh" xlink:type="simple">
        <text fill="#0000f0" font-family="sans-serif" font-size="12" lengthAdjust="spacingAndGlyphs" textLength="49" x="1241" y="867.1387">Trimesh</text>
      </a>
    </g>
    <!--class Mesh-->
    <rect fill="#FEFECE" filter="url(#fhhin1x4481k0)" height="23.9688" id="Mesh" style="stroke: #A80036; stroke-width: 1.5;" width="39" x="1246" y="966"/>
    <text fill="#000000" font-family="sans-serif" font-size="12" lengthAdjust="spacingAndGlyphs" textLength="33" x="1249" y="982.1387">Mesh</text>
    <!--class Scatter-->
    <rect fill="#FEFECE" filter="url(#fhhin1x4481k0)" height="23.9688" id="Scatter" style="stroke: #A80036; stroke-width: 1.5;" width="52" x="1239.5" y="1025"/>
    <text fill="#000000" font-family="sans-serif" font-size="12" lengthAdjust="spacingAndGlyphs" textLength="46" x="1242.5" y="1041.1387">Scatter</text>
    <!--link Transform to RandTransform-->
    <path d="M376.31,650 C408.657,650 457.83,650 494.665,650 " fill="none" id="Transform-RandTransform" style="stroke: #A80036; stroke-width: 1.0; stroke-dasharray: 7.0,7.0;"/>
    <!--link Transform to TfmConvertItem-->
    <path d="M395.873,634.411 C429.486,624.593 472.227,612.109 503.239,603.052 " fill="none" id="Transform-TfmConvertItem" style="stroke: #A80036; stroke-width: 1.0;"/>
    <polygon fill="none" points="397.471,641.237,376.31,640.125,393.546,627.798,397.471,641.237" style="stroke: #A80036; stroke-width: 1.0;"/>
    <!--link Transform to TfmSpatial-->
    <path d="M371.828,624.676 C395.089,605.54 429.061,579.644 462,562 C477.047,553.94 494.719,547.191 509.839,542.147 " fill="none" id="Transform-TfmSpatial" style="stroke: #A80036; stroke-width: 1.0;"/>
    <polygon fill="none" points="376.126,630.207,356.321,637.742,367.105,619.502,376.126,630.207" style="stroke: #A80036; stroke-width: 1.0;"/>
    <!--link TfmSpatial to TfmAffine-->
    <path d="M601.32,532 C627.283,532 657.325,532 679.235,532 " fill="none" id="TfmSpatial-TfmAffine" style="stroke: #A80036; stroke-width: 1.0;"/>
    <polygon fill="none" points="601.174,539,581.174,532,601.174,525,601.174,539" style="stroke: #A80036; stroke-width: 1.0;"/>
    <!--link Transform to TfmColors-->
    <path d="M359.763,620.276 C380.275,587.354 417.396,534.742 462,503 C476.776,492.484 495.642,485.263 511.602,480.545 " fill="none" id="Transform-TfmColors" style="stroke: #A80036; stroke-width: 1.0;"/>
    <polygon fill="none" points="365.505,624.311,349.219,637.868,353.497,617.114,365.505,624.311" style="stroke: #A80036; stroke-width: 1.0;"/>
    <!--link BaseDataset to PointsDataset-->
    <path d="M609.313,1014 C627.287,1014 646.553,1014 663.371,1014 " fill="none" id="BaseDataset-PointsDataset" style="stroke: #A80036; stroke-width: 1.0;"/>
    <polygon fill="none" points="609.031,1021,589.031,1014,609.031,1007,609.031,1021" style="stroke: #A80036; stroke-width: 1.0;"/>
    <!--link BaseDataset to MeshesDataset-->
    <path d="M609.171,1026.604 C612.859,1027.667 616.492,1028.798 620,1030 C644.246,1038.306 670.538,1051.38 688.407,1060.933 " fill="none" id="BaseDataset-MeshesDataset" style="stroke: #A80036; stroke-width: 1.0;"/>
    <polygon fill="none" points="606.992,1033.273,589.325,1021.575,610.431,1019.702,606.992,1033.273" style="stroke: #A80036; stroke-width: 1.0;"/>
    <!--link ItemBase to MeshItem-->
    <path d="M763.42,899 C799.97,899 847.935,899 879.225,899 " fill="none" id="ItemBase-MeshItem" style="stroke: #A80036; stroke-width: 1.0;"/>
    <polygon fill="none" points="763.172,906,743.172,899,763.172,892,763.172,906" style="stroke: #A80036; stroke-width: 1.0;"/>
    <!--link ItemBase to PointsItem-->
    <path d="M762.591,884.038 C798.08,873.543 844.639,859.773 876.178,850.446 " fill="none" id="ItemBase-PointsItem" style="stroke: #A80036; stroke-width: 1.0;"/>
    <polygon fill="none" points="764.336,890.822,743.172,889.781,760.366,877.397,764.336,890.822" style="stroke: #A80036; stroke-width: 1.0;"/>
    <!--link PointsDataset to PointsItem-->
    <path d="M736.473,993.135 C755.603,976.247 782.327,951.348 803,927 C822.867,903.601 818.309,889.518 842,870 C852.042,861.727 864.711,855.366 876.473,850.676 " fill="none" id="PointsDataset-PointsItem" style="stroke: #A80036; stroke-width: 1.0;"/>
    <polygon fill="#A80036" points="726.452,1001.863,733.6037,1000.939,735.5014,993.9821,728.3497,994.9061,726.452,1001.863" style="stroke: #A80036; stroke-width: 1.0;"/>
    <text fill="#000000" font-family="sans-serif" font-size="13" lengthAdjust="spacingAndGlyphs" textLength="36" x="832.5378" y="865.4245">many</text>
    <!--link MeshesDataset to MeshItem-->
    <path d="M775.535,1058.395 C785.225,1054.607 794.736,1049.881 803,1044 C854.491,1007.36 892.012,938.868 905.758,911.129 " fill="none" id="MeshesDataset-MeshItem" style="stroke: #A80036; stroke-width: 1.0;"/>
    <polygon fill="#A80036" points="763.246,1062.706,770.232,1064.4939,774.5692,1058.7329,767.5832,1056.9451,763.246,1062.706" style="stroke: #A80036; stroke-width: 1.0;"/>
    <text fill="#000000" font-family="sans-serif" font-size="13" lengthAdjust="spacingAndGlyphs" textLength="36" x="860.0158" y="930.9571">many</text>
    <!--link SparseDataBunch to BaseDataset-->
    <path d="M366.75,860.888 C409.32,897.558 496.209,972.403 530.311,1001.778 " fill="none" id="SparseDataBunch-BaseDataset" style="stroke: #A80036; stroke-width: 1.0;"/>
    <polygon fill="#A80036" points="356.704,852.235,358.6396,859.1815,365.7962,860.0665,363.8606,853.12,356.704,852.235" style="stroke: #A80036; stroke-width: 1.0;"/>
    <!--link ItemList to BaseDataset-->
    <path d="M117.351,280.522 C120.939,394.55 138.158,774.367 210,868 C282.611,962.635 429.311,997.038 501.873,1008.62 " fill="none" id="ItemList-BaseDataset" style="stroke: #A80036; stroke-width: 1.0;"/>
    <polygon fill="none" points="110.344,280.368,116.772,260.176,124.338,279.969,110.344,280.368" style="stroke: #A80036; stroke-width: 1.0;"/>
    <!--link Dataset to BaseDataset-->
    <path d="M389.563,171.47 C409.839,174.71 431.867,182.26 445,199 C461.437,219.949 458.334,651.626 462,678 C479.946,807.102 526.746,958.759 540.589,1001.971 " fill="none" id="Dataset-BaseDataset" style="stroke: #A80036; stroke-width: 1.0;"/>
    <polygon fill="none" points="388.709,178.42,369.512,169.45,390.113,164.49,388.709,178.42" style="stroke: #A80036; stroke-width: 1.0;"/>
    <!--link Trimesh to Meshes-->
    <path d="M1277.35,875.125 C1304.78,904.94 1380.43,982.082 1460.5,1019 C1470.66,1023.6843 1481.9056,1027.2136 1493.0873,1029.8729 C1498.6782,1031.2025 1504.2531,1032.3146 1509.6683,1033.2447 C1512.3759,1033.7098 1515.0436,1034.1294 1517.6534,1034.5079 C1518.9583,1034.6972 1520.2488,1034.8762 1521.5225,1035.0455 C1522.1593,1035.1302 1522.792,1035.2124 1523.4202,1035.2923 " fill="none" id="Trimesh-Meshes" style="stroke: #A80036; stroke-width: 1.0; stroke-dasharray: 7.0,7.0;"/>
    <text fill="#000000" font-family="sans-serif" font-size="13" lengthAdjust="spacingAndGlyphs" textLength="84" x="1364.5" y="952.0669">read meshes</text>
    <!--link MeshItem to Trimesh-->
    <path d="M958.562,894.378 C1032.74,886.77 1178.28,871.843 1237.99,865.719 " fill="none" id="MeshItem-Trimesh" style="stroke: #A80036; stroke-width: 1.0;"/>
    <polygon fill="#A80036" points="945.579,895.71,951.956,899.0766,957.5163,894.485,951.1393,891.1184,945.579,895.71" style="stroke: #A80036; stroke-width: 1.0;"/>
    <text fill="#000000" font-family="sans-serif" font-size="13" lengthAdjust="spacingAndGlyphs" textLength="137" x="1029.5" y="839.0669">used for files reading,</text>
    <text fill="#000000" font-family="sans-serif" font-size="13" lengthAdjust="spacingAndGlyphs" textLength="110" x="1045" y="854.1997">calc the normals,</text>
    <text fill="#000000" font-family="sans-serif" font-size="13" lengthAdjust="spacingAndGlyphs" textLength="110" x="1043" y="869.3325">some transforms</text>
    <!--link ItemBase to ipyvolume-->
    <path d="M753.857,916.129 C834.401,948.608 1017.02,1019.922 1175.5,1065 C1184.9225,1067.68 1195.0013,1070.1763 1204.8658,1072.4207 C1207.3319,1072.9818 1209.7847,1073.5272 1212.2104,1074.0557 C1212.8169,1074.1879 1213.4216,1074.3189 1214.0245,1074.449 C1214.3259,1074.514 1214.6268,1074.5787 1214.9273,1074.6432 C1215.0775,1074.6754 1215.2276,1074.7076 1215.3776,1074.7397 " fill="none" id="ItemBase-ipyvolume" style="stroke: #A80036; stroke-width: 1.0;"/>
    <polygon fill="#A80036" points="741.376,911.077,745.4364,917.0363,752.499,915.5803,748.4386,909.621,741.376,911.077" style="stroke: #A80036; stroke-width: 1.0;"/>
    <text fill="#000000" font-family="sans-serif" font-size="13" lengthAdjust="spacingAndGlyphs" textLength="110" x="1154.36" y="1096.0439">used for 3D show</text>
    <!--link PointsItem to pts-->
    <path d="M948.611,832.557 C971.324,827.923 1001.57,822.087 1028.5,818 C1235.91,786.523 1491.1,763.945 1548.96,759.012 " fill="none" id="PointsItem-pts" style="stroke: #A80036; stroke-width: 1.0; stroke-dasharray: 7.0,7.0;"/>
    <!--link datasets to Data source-->
    <path d="M562.2791,1117.0948 C562.4274,1117.1669 562.5767,1117.2394 562.727,1117.3122 C572.3403,1121.9722 585.6856,1128.0464 601.2809,1134.0742 C632.4715,1146.1298 672.6625,1158 710,1158 C710,1158 710,1158 1266.5,1158 C1332.82,1158 1405.1975,1140.558 1461.6038,1122.8435 C1489.8069,1113.9863 1514.0172,1105.0609 1531.4811,1098.2136 C1533.6641,1097.3576 1535.7417,1096.5342 1537.7084,1095.7474 C1538.6918,1095.354 1539.6475,1094.9698 1540.5749,1094.5953 C1541.0385,1094.408 1541.4951,1094.2232 1541.9445,1094.0408 " fill="none" id="datasets-Data source" style="stroke: #A80036; stroke-width: 1.0; stroke-dasharray: 7.0,7.0;"/>
    <path d="M847,1109 L847,1149 L974,1149 L974,1119 L964,1109 L847,1109 " fill="#FBFB77" filter="url(#fhhin1x4481k0)" style="stroke: #A80036; stroke-width: 1.0;"/>
    <path d="M964,1109 L964,1119 L974,1119 L964,1109 " fill="#FBFB77" style="stroke: #A80036; stroke-width: 1.0;"/>
    <text fill="#000000" font-family="sans-serif" font-size="13" lengthAdjust="spacingAndGlyphs" textLength="106" x="853" y="1126.0669">datasets loading</text>
    <text fill="#000000" font-family="sans-serif" font-size="13" lengthAdjust="spacingAndGlyphs" textLength="106" x="853" y="1141.1997">files from source</text>
    <!--link DataBunch to SparseDataBunch-->
    <path d="M172.148,201.032 C180.295,205.133 187.709,210.63 193,218 C207.915,238.773 201.05,654.044 210,678 C234.52,743.633 296.82,802.824 325.559,827.645 " fill="none" id="DataBunch-SparseDataBunch" style="stroke: #A80036; stroke-width: 1.0;"/>
    <polygon fill="none" points="169.383,207.472,153.078,193.939,174.263,194.35,169.383,207.472" style="stroke: #A80036; stroke-width: 1.0;"/>
    <!--link SparseDataBunch to DataLoader-->
    <path d="M315.143,819.526 C279.161,789.416 217.316,729.262 201.5,660.5 C191.587,617.403 191.587,305.597 201.5,262.5 C210.519,223.287 263.567,220.147 301.697,223.216 " fill="none" id="SparseDataBunch-DataLoader" style="stroke: #A80036; stroke-width: 1.0;"/>
    <polygon fill="#A80036" points="325.4,827.882,323.275,820.9911,316.0968,820.3023,318.2219,827.1932,325.4,827.882" style="stroke: #A80036; stroke-width: 1.0;"/>
    <!--link fast.ai to torch-->
  </g>
</svg>
